<svg xmlns="http://www.w3.org/2000/svg" width="48.639" height="12.961" viewBox="0 0 48.639 12.961">
  <path id="Icon_payment-paypal" data-name="Icon payment-paypal" d="M29.364,23.452H27.543a.526.526,0,0,0-.435.231l-2.512,3.7-1.064-3.555a.527.527,0,0,0-.5-.375h-1.79a.316.316,0,0,0-.3.417l2,5.886-1.886,2.661a.315.315,0,0,0,.258.5h1.819a.529.529,0,0,0,.432-.226l6.056-8.74a.315.315,0,0,0-.259-.5ZM17.191,26.978a2.02,2.02,0,0,1-2.045,1.73,1.4,1.4,0,0,1-1.5-1.762,2.027,2.027,0,0,1,2.03-1.743,1.526,1.526,0,0,1,1.208.494,1.56,1.56,0,0,1,.307,1.281Zm2.525-3.526H17.9a.316.316,0,0,0-.312.266l-.079.506-.126-.183a2.581,2.581,0,0,0-2.141-.76A4.166,4.166,0,0,0,11.2,26.925a3.419,3.419,0,0,0,.675,2.783,2.834,2.834,0,0,0,2.281.921,3.469,3.469,0,0,0,2.508-1.036l-.081.5a.315.315,0,0,0,.312.364h1.631a.525.525,0,0,0,.519-.444l.98-6.2a.315.315,0,0,0-.312-.364Zm-10.872.043C8.637,24.853,7.6,24.853,6.6,24.853H6.026l.4-2.536a.315.315,0,0,1,.311-.266H7c.683,0,1.328,0,1.661.389a1.263,1.263,0,0,1,.184,1.055Zm-.436-3.543H4.624A.526.526,0,0,0,4.1,20.4l-1.53,9.7a.315.315,0,0,0,.311.364H4.693a.525.525,0,0,0,.519-.444L5.625,27.4a.525.525,0,0,1,.519-.444h1.2c2.492,0,3.931-1.206,4.306-3.6a2.913,2.913,0,0,0-.482-2.441,3.507,3.507,0,0,0-2.757-.967Zm40.428.267L47.282,30.1a.315.315,0,0,0,.311.364h1.562a.525.525,0,0,0,.519-.444l1.531-9.7a.315.315,0,0,0-.312-.364H49.147a.315.315,0,0,0-.312.267Zm-4.66,6.76a2.02,2.02,0,0,1-2.045,1.73,1.4,1.4,0,0,1-1.5-1.762A2.027,2.027,0,0,1,42.66,25.2a1.526,1.526,0,0,1,1.208.494,1.56,1.56,0,0,1,.307,1.281ZM46.7,23.452H44.888a.316.316,0,0,0-.312.266l-.079.506-.127-.183a2.579,2.579,0,0,0-2.14-.76,4.166,4.166,0,0,0-4.044,3.645,3.418,3.418,0,0,0,.675,2.783,2.834,2.834,0,0,0,2.281.921,3.469,3.469,0,0,0,2.508-1.036l-.081.5a.315.315,0,0,0,.312.364h1.631a.525.525,0,0,0,.519-.444l.98-6.2a.316.316,0,0,0-.312-.364Zm-10.872.043c-.207,1.358-1.244,1.358-2.247,1.358h-.57l.4-2.536a.315.315,0,0,1,.311-.266h.262c.683,0,1.328,0,1.661.389a1.265,1.265,0,0,1,.183,1.055Zm-.436-3.543H31.608a.526.526,0,0,0-.519.444l-1.53,9.7a.316.316,0,0,0,.311.364h1.941a.368.368,0,0,0,.363-.31l.434-2.751a.525.525,0,0,1,.519-.444h1.2c2.492,0,3.931-1.206,4.306-3.6a2.913,2.913,0,0,0-.482-2.441,3.507,3.507,0,0,0-2.757-.967Z" transform="translate(-2.571 -19.952)"/>
</svg>
