<svg xmlns="http://www.w3.org/2000/svg" width="33.802" height="19.086" viewBox="0 0 33.802 19.086">
  <g id="Grupo_52" data-name="Grupo 52" transform="translate(-1112.461 -474.96)">
    <path id="Trazado_14" data-name="Trazado 14" d="M1138.852,490.453h-13.067l.9-1.819q2.4-4.848,4.789-9.7a.606.606,0,0,1,.639-.4q3.164.022,6.327,0a.5.5,0,0,1,.576.384,4.7,4.7,0,0,0,3.085,3.039.4.4,0,0,1,.327.444c-.01,1.411,0,2.822-.018,4.233a.5.5,0,0,1-.26.37,4.955,4.955,0,0,0-3.225,3.319A.887.887,0,0,1,1138.852,490.453Zm-5.159-10.225a1.06,1.06,0,0,0-.03.228.91.91,0,0,1-.6,1.049,1.745,1.745,0,0,0-.1,2.993,7.88,7.88,0,0,0,.859.463c.224.116.458.212.675.339a.657.657,0,0,1,.359.785.624.624,0,0,1-.685.46,6.636,6.636,0,0,1-1.164-.22,3.037,3.037,0,0,1-.573-.288c-.1.291-.181.529-.274.761a.48.48,0,0,0,.3.714c.344.13.7.236,1.07.36l.052.9h1.24a3.111,3.111,0,0,0,0-.436.646.646,0,0,1,.492-.789,1.66,1.66,0,0,0,1.015-1.267,1.858,1.858,0,0,0-.969-2.142c-.474-.273-.99-.473-1.463-.749a.576.576,0,0,1-.231-.463.694.694,0,0,1,.33-.413.71.71,0,0,1,.474-.061c.428.087.848.212,1.282.324.6-1.066.6-1.066-.881-1.694v-.85Z"/>
    <path id="Trazado_15" data-name="Trazado 15" d="M1124.179,494.022c.287-.594.525-1.136.814-1.649a.627.627,0,0,1,.475-.193q5.212-.027,10.425-.027c2.347,0,4.693.015,7.04.02a1.257,1.257,0,0,0,1.428-1.419q0-6.26,0-12.519a1.244,1.244,0,0,0-1.4-1.4q-4.856.007-9.712.02c-.221,0-.442,0-.757,0,.3-.628.572-1.2.863-1.756.038-.072.2-.112.3-.113,3.223-.011,6.446-.043,9.668-.011a3.049,3.049,0,0,1,2.919,3.16c.016,3.49.013,6.98.015,10.47,0,.772.006,1.545-.017,2.316a3.076,3.076,0,0,1-3.192,3.122q-9.244.009-18.489,0C1124.461,494.044,1124.358,494.033,1124.179,494.022Z"/>
    <path id="Trazado_16" data-name="Trazado 16" d="M1123.58,479.437c-1.544,0-3.088.006-4.632,0a.889.889,0,0,1-.986-.815.92.92,0,0,1,.964-1.034q4.632-.01,9.263.008a.922.922,0,1,1-.022,1.839c-1.529.008-3.058,0-4.587,0Z"/>
    <path id="Trazado_17" data-name="Trazado 17" d="M1117.787,485.422c-1.424,0-2.849,0-4.274,0a.941.941,0,0,1-.989-.6.905.905,0,0,1,.549-1.189,1.254,1.254,0,0,1,.394-.063q4.318-.006,8.637,0a.928.928,0,1,1,0,1.846c-1.009.008-2.019,0-3.028,0h-1.291Z"/>
    <path id="Trazado_18" data-name="Trazado 18" d="M1119.177,489.563c.979,0,1.958,0,2.938,0a.932.932,0,1,1,0,1.847q-2.914.01-5.83,0a1.41,1.41,0,0,1-.676-.163.854.854,0,0,1-.389-1,.867.867,0,0,1,.886-.669c1.024-.013,2.048,0,3.071,0Z"/>
  </g>
</svg>
